<?xml version="1.0" encoding="UTF-8" standalone="no"?>
<svg
   width="48"
   height="63.999996"
   viewBox="0 0 48 999.99994"
   fill="none"
   version="1.1"
   id="svg4"
   sodipodi:docname="logo.svg"
   inkscape:version="1.1.1 (3bf5ae0d25, 2021-09-20)"
   xmlns:inkscape="http://www.inkscape.org/namespaces/inkscape"
   xmlns:sodipodi="http://sodipodi.sourceforge.net/DTD/sodipodi-0.dtd"
   xmlns="http://www.w3.org/2000/svg"
   xmlns:svg="http://www.w3.org/2000/svg">
  <defs
     id="defs8" />
  <sodipodi:namedview
     id="namedview6"
     pagecolor="#ffffff"
     bordercolor="#666666"
     borderopacity="1.0"
     inkscape:pageshadow="2"
     inkscape:pageopacity="0.0"
     inkscape:pagecheckerboard="0"
     showgrid="false"
     inkscape:zoom="7.9799357"
     inkscape:cx="30.388716"
     inkscape:cy="36.403802"
     inkscape:window-width="1920"
     inkscape:window-height="1017"
     inkscape:window-x="-8"
     inkscape:window-y="-8"
     inkscape:window-maximized="1"
     inkscape:current-layer="svg4" />
  <path
     fillRule="evenodd"
     clipRule="evenodd"
     d="m -184.55402,1.0925602 c -0.867,0.8854 -1.579,15.6241408 -1.579,32.7575408 v 31.1478 h -37.861 -37.8619 v -19.5091 -19.5069 l -36.1406,-1.661 c -19.8784,-0.9134 -39.7546,-1.8572 -44.1718,-2.1002 l -8.0312,-0.4415 -0.7159,53.7314 c -0.6379,47.730399 2.4438,121.820399 5.5025,132.361399 1.3653,4.703 4.5021,6.027 18.8505,7.966 l 11.0739,1.496 2.866,-21.853 c 1.5787,-12.019 4.1349,-28.16 5.6861,-35.869 l 2.8178,-14.017 141.5996,-0.603 141.599991,-0.6 V 294.667 444.942 L 1.7449705,460.55 c 12.4669995,8.586 23.6989995,15.61 24.9609995,15.61 1.262,0 3.63,-1.637 5.262,-3.639 1.634,-2.002 10.537,-8.966 19.787,-15.477 l 16.817,-11.838 V 294.798 144.392 l 141.59301,0.6 141.593,0.603 3.024,10.513 c 1.664,5.782 4.337,21.551 5.939,35.042 l 2.912,24.53 8.116,-0.232 c 16.184,-0.46 19.848,-2.53 21.308,-12.026 3.524,-22.932 5.943,-74.285 5.943,-126.182599 v -57.1656 l -13.194,1.8011 c -7.258,0.9929 -27.134,2.4273 -44.172,3.1912 l -30.978,1.3854 -0.665,19.2732 -0.668,19.2732 h -37.703 -37.705 l -0.638,-32.122 -0.638,-32.12208676 h -43.598 -43.599 l -0.637,32.12208676 -0.638,32.122 h -37.798 -37.79701 v -22.2448 -22.2425 l -44.172,0.6331 -44.171999,0.6355 -0.66,21.6094 -0.659,21.6093 h -37.710001 -37.712 l -0.638,-32.122 -0.638,-32.12208676 -42.59299,-0.633096 c -23.426,-0.350423 -43.305,0.08877 -44.172,0.97184196 z M -339.21962,479.027 c 1.0165,243.431 0.7664,238.771 14.7866,275.465 15.7711,41.272 42.6895,71.899 92.407,105.14 63.222,42.268 104.26599,67.158 106.68499,64.695 0.764,-0.775 2.336,-32.285 3.499,-70.019 1.161,-37.733 3.192,-75.441 4.514,-83.793 6.179,-39.048 33.632,-75.642 80.076001,-106.734 l 26.442999,-17.701 -6.776,-5.628 c -23.875,-19.829 -65.452,-43.816 -72.182,-41.641 -7.313,2.364 -36.462,26.826 -50.30599,42.218 -27.267,30.317 -44.089,64.642 -53.914,110.014 -2.889,13.338 -5.921,24.93 -6.735,25.759 -4.766,4.852 -29.567,-21.397 -43.463,-46.001 -11.675,-20.675 -11.5006,-17.25 -12.9072,-252.304 l -1.3218,-220.767 -40.8652,-0.637 -40.8675,-0.641 z m 143.9086,-170.242 c 0,57.238 2.505,78.749 12.843,110.245 8.749,26.662 17.104,42.413 33.527,63.218 39.90299,50.55 96.36299,97.486 179.22199,148.995 83.58001,51.959 101.86401,66.891 116.16001,94.864 13.07,25.581 16.094,42.247 16.319,89.963 0.218,46.534 3.045,105.611 5.154,107.76 2.437,2.478 14.197,-3.535 46.48,-23.771 52.483,-32.897 95.333,-64.164 113.472,-82.797 26.111,-26.824 49.291,-70.767 54.915,-104.113 3.849,-22.808 7.265,-194.389 6.556,-329.267 l -0.663,-126.152 h -41.303 -41.304 v 205.582 c 0,154.877 -0.711,209.613 -2.884,221.934 -3.924,22.233 -22.355,60.032 -37.499,76.901 -17.641,19.652 -24.053,17.306 -27.426,-10.041 -3.35,-27.157 -17.125,-62.293 -34.789,-88.727 -15.876,-23.763 -51.354,-53.563 -99.33,-83.437 -10.096005,-6.287 -29.199005,-19.414 -42.45101,-29.17 -13.251,-9.758 -45.241,-32.376 -71.0879995,-50.264 C -64.88603,462.106 -83.64303,445.12 -94.99403,422.994 c -10.82,-21.09 -17.71,-44.868 -17.71,-61.104 0,-20.558 2.074,-22.175 30.218,-23.562 l 23.706,-1.169 V 297.445 257.73 l -68.266,-0.619 -68.26499,-0.619 z m 302.892,-11.34 v 40.883 h 15.913 c 8.752,0 18.672,1.067 22.045,2.373 l 6.133,2.374 -0.823,26.428 c -0.806,25.775 -1.074,26.939 -10.859,47.043 -8.308,17.073 -13.832,24.486 -32.12,43.119 -12.150005,12.374 -28.531005,26.669 -36.40901,31.762 -7.875,5.095 -14.004,10.253 -13.619,11.466 0.764,2.411 65.39501,50.36 67.88001,50.36 3.201,0 40.375,-35.362 56.09,-53.36 19.487,-22.31 40.517,-61.235 47.814,-88.493 4.291,-16.035 4.984,-26.212 5.888,-86.505 l 1.026,-68.333 h -64.48 -64.479 z M 15.57697,673.834 c -1.7,2.084 -10.6049995,8.952 -19.7929995,15.264 l -16.7029995,11.475 v 137.812 137.814 l 10.405999,6.71895 c 5.7230005,3.696 16.0490005,9.05 22.947,11.9 l 12.54,5.182 12.673,-5.238 c 6.971,-2.878 16.79,-8.27 21.818,-11.979 l 9.144,-6.74295 -0.592,-137.155 -0.592,-137.155 -16.063,-10.705 c -31.856,-21.231 -32.313,-21.45 -35.785,-17.191 z"
     fill="#edbe44"
     id="path2" />
</svg>
