<svg width="48" height="48" viewBox="0 0 48 48" fill="none" xmlns="http://www.w3.org/2000/svg">
<path fill-rule="evenodd" clip-rule="evenodd" d="M26.6159 28.2001C26.9759 28.6561 27.4079 29.1721 27.4079 29.1721C30.0599 29.0881 31.0799 27.3481 31.0799 27.3481C31.0799 23.4841 29.3519 20.3521 29.3519 20.3521C27.6239 19.0561 25.9799 19.0921 25.9799 19.0921L25.8119 19.2841C27.8519 19.9081 28.7999 20.8081 28.7999 20.8081C27.5519 20.1241 26.3279 19.7881 25.1879 19.6561C24.3239 19.5601 23.4959 19.5841 22.7639 19.6801C22.701 19.6801 22.6473 19.6893 22.5868 19.6996L22.5599 19.7041C22.1399 19.7401 21.1199 19.8961 19.8359 20.4601C19.3919 20.6641 19.1279 20.8081 19.1279 20.8081C19.1279 20.8081 20.1239 19.8601 22.2839 19.2361L22.1639 19.0921C22.1639 19.0921 20.5199 19.0561 18.7919 20.3521C18.7919 20.3521 17.0639 23.4841 17.0639 27.3481C17.0639 27.3481 18.0719 29.0881 20.7239 29.1721C20.7239 29.1721 21.1679 28.6321 21.5279 28.1761C20.0039 27.7201 19.4279 26.7601 19.4279 26.7601C19.4279 26.7601 19.5479 26.8441 19.7639 26.9641C19.7759 26.9761 19.7879 26.9881 19.8119 27.0001C19.8299 27.0121 19.8479 27.0211 19.8659 27.0301C19.8839 27.0391 19.9019 27.0481 19.9199 27.0601C20.2199 27.2281 20.5199 27.3601 20.7959 27.4681C21.2879 27.6601 21.8759 27.8521 22.5599 27.9841C23.4599 28.1521 24.5159 28.2121 25.6679 27.9961C26.2319 27.9001 26.8079 27.7321 27.4079 27.4801C27.8279 27.3241 28.2959 27.0961 28.7879 26.7721C28.7879 26.7721 28.1879 27.7561 26.6159 28.2001ZM20.6039 24.9001C20.6039 24.1681 21.1439 23.5681 21.8279 23.5681C22.5119 23.5681 23.0639 24.1681 23.0519 24.9001C23.0519 25.6321 22.5119 26.2321 21.8279 26.2321C21.1559 26.2321 20.6039 25.6321 20.6039 24.9001ZM24.9839 24.9001C24.9839 24.1681 25.5239 23.5681 26.2079 23.5681C26.8919 23.5681 27.4319 24.1681 27.4319 24.9001C27.4319 25.6321 26.8919 26.2321 26.2079 26.2321C25.5359 26.2321 24.9839 25.6321 24.9839 24.9001Z" fill="#5EF6E4"/>
<path fill-rule="evenodd" clip-rule="evenodd" d="M40.5 0C44.6421 0 48 3.35786 48 7.5V40.5C48 44.6421 44.6421 48 40.5 48H7.5C3.35786 48 0 44.6421 0 40.5V7.5C0 3.35786 3.35786 0 7.5 0H40.5ZM15.96 13.5H32.04C33.396 13.5 34.5 14.604 34.5 15.972V37.5L31.92 35.22L30.468 33.876L28.932 32.448L29.568 34.668H15.96C14.604 34.668 13.5 33.564 13.5 32.196V15.972C13.5 14.604 14.604 13.5 15.96 13.5Z" fill="#5EF6E4"/>
</svg>
