<svg width="48" height="48" viewBox="0 0 48 48" fill="none" xmlns="http://www.w3.org/2000/svg">
<path fill-rule="evenodd" clip-rule="evenodd" d="M7.5 0H40.5C44.6421 0 48 3.35786 48 7.5V40.5C48 44.6421 44.6421 48 40.5 48H7.5C3.35786 48 0 44.6421 0 40.5V7.5C0 3.35786 3.35786 0 7.5 0ZM25.0378 18.0111C22.8883 18.9051 18.5923 20.7556 12.1499 23.5624C11.1037 23.9785 10.5557 24.3854 10.5058 24.7834C10.4215 25.456 11.2637 25.7208 12.4106 26.0814C12.5666 26.1305 12.7283 26.1813 12.894 26.2352C14.0223 26.602 15.5402 27.0311 16.3292 27.0481C17.045 27.0636 17.8439 26.7685 18.7258 26.1628C24.7452 22.0996 27.8524 20.0458 28.0475 20.0016C28.1851 19.9703 28.3759 19.9311 28.5051 20.0459C28.6343 20.1608 28.6216 20.3783 28.6079 20.4366C28.5245 20.7923 25.2184 23.8659 23.5076 25.4565C22.9742 25.9523 22.5959 26.3041 22.5185 26.3844C22.3453 26.5643 22.1687 26.7345 21.999 26.8981C20.9507 27.9087 20.1646 28.6665 22.0425 29.904C22.945 30.4987 23.6671 30.9905 24.3876 31.4811C25.1743 32.0169 25.9591 32.5513 26.9744 33.2169C27.2331 33.3864 27.4801 33.5626 27.7208 33.7341C28.6364 34.3869 29.459 34.9733 30.4753 34.8798C31.0658 34.8254 31.6758 34.2702 31.9856 32.6141C32.7177 28.7002 34.1567 20.2201 34.4893 16.7257C34.5185 16.4195 34.4818 16.0277 34.4524 15.8557C34.4229 15.6837 34.3614 15.4386 34.1379 15.2572C33.8731 15.0424 33.4643 14.9971 33.2815 15.0001C32.4503 15.0149 31.175 15.4584 25.0378 18.0111Z" fill="#5EF6E4"/>
</svg>
